<?xml version="1.0" encoding="UTF-8"?><svg id="Calque_2" xmlns="http://www.w3.org/2000/svg" viewBox="0 0 247.49 95.3"><defs><style>.cls-1{fill:#ae6897;}.cls-2{fill:#096376;}</style></defs><path class="cls-1" d="M24.24,86.03l-2.84,6.74h-2.02l-2.83-6.74h2.02l1.87,4.59,1.93-4.59h1.88Z"/><path class="cls-1" d="M24.35,89.4c0-2.03,1.57-3.47,3.71-3.47s3.7,1.44,3.7,3.47-1.55,3.47-3.7,3.47-3.71-1.44-3.71-3.47ZM29.78,89.4c0-1.17-.74-1.87-1.72-1.87s-1.73.7-1.73,1.87.75,1.87,1.73,1.87,1.72-.7,1.72-1.87Z"/><path class="cls-1" d="M39.85,86.03v6.74h-1.85v-.8c-.51.59-1.27.9-2.09.9-1.69,0-2.88-.95-2.88-3.03v-3.81h1.95v3.52c0,1.13.5,1.63,1.37,1.63s1.55-.58,1.55-1.82v-3.33h1.95Z"/><path class="cls-1" d="M41.02,92.14l.65-1.4c.6.39,1.52.65,2.34.65.9,0,1.24-.24,1.24-.61,0-1.1-4.07.02-4.07-2.67,0-1.28,1.15-2.18,3.12-2.18.93,0,1.95.21,2.59.59l-.65,1.39c-.66-.38-1.33-.5-1.94-.5-.88,0-1.25.28-1.25.63,0,1.15,4.07.04,4.07,2.69,0,1.25-1.17,2.14-3.18,2.14-1.14,0-2.29-.31-2.92-.73Z"/><path class="cls-1" d="M57.83,88.92v3.85h-1.83v-.84c-.36.61-1.06.94-2.05.94-1.58,0-2.52-.88-2.52-2.04s.84-2.02,2.89-2.02h1.55c0-.84-.5-1.33-1.55-1.33-.71,0-1.45.24-1.94.63l-.7-1.37c.74-.53,1.83-.81,2.91-.81,2.05,0,3.24.95,3.24,2.99ZM55.88,90.64v-.69h-1.34c-.91,0-1.2.34-1.2.79,0,.49.41.81,1.1.81.65,0,1.22-.3,1.44-.91Z"/><path class="cls-1" d="M59.18,89.4c0-2.03,1.57-3.47,3.76-3.47,1.42,0,2.53.61,3.02,1.72l-1.52.81c-.36-.64-.9-.93-1.52-.93-.99,0-1.77.69-1.77,1.87s.78,1.87,1.77,1.87c.61,0,1.15-.28,1.52-.93l1.52.83c-.49,1.08-1.6,1.7-3.02,1.7-2.19,0-3.76-1.44-3.76-3.47Z"/><path class="cls-1" d="M66.49,89.4c0-2.03,1.57-3.47,3.76-3.47,1.42,0,2.53.61,3.02,1.72l-1.52.81c-.36-.64-.9-.93-1.52-.93-.99,0-1.77.69-1.77,1.87s.78,1.87,1.77,1.87c.61,0,1.15-.28,1.52-.93l1.52.83c-.49,1.08-1.6,1.7-3.02,1.7-2.19,0-3.76-1.44-3.76-3.47Z"/><path class="cls-1" d="M73.81,89.4c0-2.03,1.57-3.47,3.71-3.47s3.7,1.44,3.7,3.47-1.55,3.47-3.7,3.47-3.71-1.44-3.71-3.47ZM79.24,89.4c0-1.17-.74-1.87-1.72-1.87s-1.73.7-1.73,1.87.75,1.87,1.73,1.87,1.72-.7,1.72-1.87Z"/><path class="cls-1" d="M93.91,88.91v3.86h-1.95v-3.56c0-1.09-.49-1.59-1.28-1.59-.88,0-1.49.56-1.49,1.77v3.38h-1.95v-3.56c0-1.09-.46-1.59-1.28-1.59-.86,0-1.48.56-1.48,1.77v3.38h-1.95v-6.74h1.87v.78c.5-.58,1.25-.88,2.12-.88.94,0,1.74.36,2.22,1.1.54-.69,1.42-1.1,2.43-1.1,1.6,0,2.76.93,2.76,2.98Z"/><path class="cls-1" d="M103.01,89.4c0,2.12-1.47,3.47-3.36,3.47-.84,0-1.53-.26-2.03-.81v3.14h-1.95v-9.17h1.87v.78c.49-.59,1.22-.88,2.12-.88,1.89,0,3.36,1.35,3.36,3.47ZM101.03,89.4c0-1.17-.74-1.87-1.72-1.87s-1.72.7-1.72,1.87.74,1.87,1.72,1.87,1.72-.7,1.72-1.87Z"/><path class="cls-1" d="M110.16,88.92v3.85h-1.83v-.84c-.36.61-1.06.94-2.05.94-1.58,0-2.52-.88-2.52-2.04s.84-2.02,2.89-2.02h1.55c0-.84-.5-1.33-1.55-1.33-.71,0-1.45.24-1.94.63l-.7-1.37c.74-.53,1.83-.81,2.91-.81,2.05,0,3.24.95,3.24,2.99ZM108.21,90.64v-.69h-1.34c-.91,0-1.2.34-1.2.79,0,.49.41.81,1.1.81.65,0,1.22-.3,1.44-.91Z"/><path class="cls-1" d="M118.96,86.03v5.61c0,2.51-1.35,3.66-3.78,3.66-1.28,0-2.52-.31-3.31-.93l.78-1.4c.58.46,1.52.76,2.38.76,1.38,0,1.98-.63,1.98-1.84v-.29c-.51.56-1.25.84-2.13.84-1.87,0-3.37-1.29-3.37-3.26s1.5-3.26,3.37-3.26c.94,0,1.72.31,2.23.96v-.86h1.85ZM117.03,89.18c0-.99-.74-1.65-1.77-1.65s-1.78.66-1.78,1.65.75,1.65,1.78,1.65,1.77-.66,1.77-1.65Z"/><path class="cls-1" d="M127.67,88.91v3.86h-1.95v-3.56c0-1.09-.5-1.59-1.37-1.59-.94,0-1.62.58-1.62,1.82v3.33h-1.95v-6.74h1.87v.79c.53-.58,1.32-.89,2.23-.89,1.59,0,2.79.93,2.79,2.98Z"/><path class="cls-1" d="M136.07,89.95h-5.1c.19.84.9,1.35,1.93,1.35.71,0,1.23-.21,1.69-.65l1.04,1.13c-.63.71-1.57,1.09-2.78,1.09-2.33,0-3.85-1.47-3.85-3.47s1.54-3.47,3.6-3.47,3.51,1.33,3.51,3.49c0,.15-.03.36-.04.53ZM130.95,88.81h3.32c-.14-.85-.78-1.4-1.65-1.4s-1.53.54-1.67,1.4Z"/><path class="cls-1" d="M141.6,85.93v1.8c-.16-.01-.29-.02-.44-.02-1.08,0-1.79.59-1.79,1.88v3.18h-1.95v-6.74h1.87v.89c.48-.65,1.28-.99,2.32-.99Z"/><path class="cls-1" d="M144.65,91.64c0,.33-.05.56-.34,1.25l-.71,1.8h-1.24l.55-1.99c-.41-.16-.68-.55-.68-1.06,0-.73.53-1.2,1.22-1.2s1.2.49,1.2,1.2Z"/><path class="cls-1" d="M156.41,88.91v3.86h-1.95v-3.56c0-1.09-.5-1.59-1.37-1.59-.94,0-1.62.58-1.62,1.82v3.33h-1.95v-6.74h1.87v.79c.53-.58,1.32-.89,2.23-.89,1.59,0,2.79.93,2.79,2.98Z"/><path class="cls-1" d="M157.75,89.4c0-2.03,1.57-3.47,3.71-3.47s3.7,1.44,3.7,3.47-1.55,3.47-3.7,3.47-3.71-1.44-3.71-3.47ZM163.18,89.4c0-1.17-.74-1.87-1.72-1.87s-1.73.7-1.73,1.87.75,1.87,1.73,1.87,1.72-.7,1.72-1.87Z"/><path class="cls-1" d="M170.81,92.44c-.4.29-.99.43-1.59.43-1.59,0-2.52-.81-2.52-2.42v-2.77h-1.04v-1.5h1.04v-1.64h1.95v1.64h1.68v1.5h-1.68v2.74c0,.58.31.89.84.89.29,0,.58-.09.79-.25l.53,1.38Z"/><path class="cls-1" d="M176.1,85.93v1.8c-.16-.01-.29-.02-.44-.02-1.08,0-1.79.59-1.79,1.88v3.18h-1.95v-6.74h1.87v.89c.48-.65,1.28-.99,2.32-.99Z"/><path class="cls-1" d="M183.76,89.95h-5.1c.19.84.9,1.35,1.93,1.35.71,0,1.23-.21,1.69-.65l1.04,1.13c-.63.71-1.57,1.09-2.78,1.09-2.33,0-3.85-1.47-3.85-3.47s1.54-3.47,3.6-3.47,3.51,1.33,3.51,3.49c0,.15-.03.36-.04.53ZM178.64,88.81h3.32c-.14-.85-.78-1.4-1.65-1.4s-1.53.54-1.67,1.4Z"/><path class="cls-1" d="M200.04,88.91v3.86h-1.95v-3.56c0-1.09-.49-1.59-1.28-1.59-.88,0-1.49.56-1.49,1.77v3.38h-1.95v-3.56c0-1.09-.46-1.59-1.28-1.59-.86,0-1.48.56-1.48,1.77v3.38h-1.95v-6.74h1.87v.78c.5-.58,1.25-.88,2.12-.88.94,0,1.74.36,2.22,1.1.54-.69,1.42-1.1,2.43-1.1,1.6,0,2.76.93,2.76,2.98Z"/><path class="cls-1" d="M208.44,89.95h-5.1c.19.84.9,1.35,1.93,1.35.71,0,1.23-.21,1.69-.65l1.04,1.13c-.63.71-1.57,1.09-2.78,1.09-2.33,0-3.85-1.47-3.85-3.47s1.54-3.47,3.6-3.47,3.51,1.33,3.51,3.49c0,.15-.03.36-.04.53ZM203.31,88.81h3.32c-.14-.85-.78-1.4-1.65-1.4s-1.53.54-1.67,1.4ZM205.32,85.16h-1.53l1.69-1.8h2.1l-2.27,1.8Z"/><path class="cls-1" d="M214.13,92.44c-.4.29-.99.43-1.59.43-1.59,0-2.52-.81-2.52-2.42v-2.77h-1.04v-1.5h1.04v-1.64h1.95v1.64h1.68v1.5h-1.68v2.74c0,.58.31.89.84.89.29,0,.58-.09.79-.25l.53,1.38Z"/><path class="cls-1" d="M214.99,84c0-.61.49-1.09,1.22-1.09s1.22.45,1.22,1.05c0,.65-.49,1.13-1.22,1.13s-1.22-.48-1.22-1.09ZM215.23,86.03h1.95v6.74h-1.95v-6.74Z"/><path class="cls-1" d="M225.56,89.95h-5.1c.19.84.9,1.35,1.93,1.35.71,0,1.23-.21,1.69-.65l1.04,1.13c-.63.71-1.57,1.09-2.78,1.09-2.33,0-3.85-1.47-3.85-3.47s1.54-3.47,3.6-3.47,3.51,1.33,3.51,3.49c0,.15-.03.36-.04.53ZM220.44,88.81h3.32c-.14-.85-.78-1.4-1.65-1.4s-1.53.54-1.67,1.4Z"/><path class="cls-1" d="M231.09,85.93v1.8c-.16-.01-.29-.02-.44-.02-1.08,0-1.79.59-1.79,1.88v3.18h-1.95v-6.74h1.87v.89c.48-.65,1.28-.99,2.32-.99Z"/><path class="cls-2" d="M53.39,40.09c-2.92-.83-6.3-.21-10.14,1.86-.64.38-1.05.89-1.25,1.54-.2.65-.13,1.31.2,1.96.38.64.89,1.05,1.55,1.25.66.2,1.32.13,1.97-.2,1.55-.83,2.84-1.33,3.88-1.49,1.04-.16,1.82-.15,2.36.02.95.29,1.5.92,1.66,1.88.23,1.08-.15,2.34-1.14,3.79-.99,1.45-2.88,2.54-5.67,3.26-1.52.26-2.93-.19-4.25-1.35-1.31-1.16-2.21-2.69-2.68-4.6-.42-1.89-.14-3.62.86-5.19.88-1.63,3.1-2.9,6.66-3.79.72-.18,1.26-.55,1.64-1.13.38-.57.5-1.22.37-1.93-.18-.72-.56-1.26-1.13-1.64-.57-.38-1.22-.5-1.93-.37-4.83,1.14-8.14,3.15-9.93,6.01s-2.31,5.91-1.58,9.14c.7,3.04,2.2,5.55,4.5,7.54,2.33,2.09,5.18,2.87,8.54,2.35,3.92-.95,6.81-2.66,8.69-5.15,1.88-2.49,2.59-5.11,2.13-7.87-.54-2.89-2.32-4.86-5.34-5.9Z"/><path class="cls-2" d="M90.62,34.77c.73.07,1.36-.12,1.89-.55.52-.43.82-1.01.91-1.73.03-.34.07-.64.1-.88.07-.72-.11-1.35-.54-1.88-.42-.54-1-.86-1.71-.95-.72-.07-1.34.11-1.87.54-.53.42-.84,1-.94,1.71-.03.28-.07.6-.1.95-.07.73.12,1.36.55,1.89.43.52,1.01.82,1.73.91Z"/><path class="cls-2" d="M120.63,50.91c-.02-1.01-.02-1.97,0-2.86v-.44c.03-.91,0-1.75-.07-2.5-.02-.13-.04-.27-.07-.42-.26-.91-.82-1.52-1.66-1.81l-.1-.05.07-.17c.16-.49.17-1,.02-1.52-1.16-3.84-3.42-5.96-6.78-6.39-1.47-.11-2.91.11-4.32.67-1.41.56-2.71,1.31-3.88,2.24-2.4,1.86-4.38,4.28-5.95,7.27-1.09,2.07-1.61,4.17-1.56,6.3-1.54,1.04-2.77,1.76-3.68,2.17-.54.23-1.04.38-1.49.47l-.51.02-.02-.12c-.07-.46-.1-1.03-.1-1.71.02-1.39.12-2.95.32-4.68.21-1.75.44-3.37.7-4.87.25-1.5.45-2.64.6-3.43.11-.72-.02-1.36-.4-1.92-.38-.56-.93-.92-1.63-1.06-.72-.11-1.36.02-1.92.4-.56.38-.92.93-1.06,1.63-.15.8-.35,1.98-.62,3.55-.27,1.57-.51,3.27-.72,5.12-.07.59-.13,1.17-.19,1.74-.31.07-.62.2-.92.39-4.7,2.99-9.28,4.46-13.73,4.43-2.01-.11-3.35-.5-4.04-1.15-.29-.23-.53-.57-.7-1.02-.17-.45-.21-1.08-.11-1.9.05-.67.59-1.72,1.62-3.16,1.04-1.39,2.27-2.61,3.67-3.67,1.45-1.03,2.61-1.58,3.48-1.66.29-.03.51-.01.66.06.15.07.28.22.39.43.05.05.08.19.09.42,0,.23-.06.54-.21.93-.26.69-.25,1.35.02,1.98.28.64.75,1.09,1.42,1.37.69.26,1.34.25,1.97-.02.63-.28,1.09-.75,1.38-1.42.82-1.83.77-3.75-.15-5.75-1.57-2.42-3.62-3.45-6.14-3.11-2.17.36-4.16,1.23-5.97,2.62-1.75,1.29-3.33,2.87-4.76,4.74-1.43,1.87-2.29,3.72-2.58,5.54-.41,3.17.44,5.68,2.55,7.54,2.09,1.6,4.51,2.4,7.27,2.4,5.01,0,9.93-1.37,14.77-4.11.13.77.33,1.52.61,2.25.18.42.48.85.89,1.27s.98.73,1.7.91c2.24.34,4.22.09,5.95-.76,1.12-.54,2.17-1.13,3.15-1.75.28.36.6.69.96.99.44.33.91.58,1.4.76,2.06.57,4.14.28,6.24-.88,2.11-1.16,3.86-2.33,5.26-3.53,1.29-1.04,2.49-2.05,3.6-3.01l.15-.12v.49c0,1.13.11,2.4.32,3.82.21,1.42.65,2.69,1.32,3.82.41.6.95.98,1.62,1.11.67.14,1.32.02,1.96-.35.6-.41.98-.95,1.11-1.63.14-.68.02-1.33-.35-1.95-.46-.72-.73-2.37-.81-4.95ZM114.76,44.35c-.59.47-1.15.95-1.69,1.42-.03.03-.07.07-.12.1-.2.18-.4.36-.61.54-1.19,1.06-2.46,2.14-3.82,3.23-1.62,1.29-3.1,2.29-4.46,2.99-.47.23-.86.39-1.16.48-.3.09-.53.14-.67.15-.15,0-.23,0-.24-.01-.02-.03-.06-.1-.12-.21-.07-.11-.13-.27-.2-.48-.41-1.57-.11-3.37.89-5.4,1-2.03,2.49-3.83,4.47-5.4,1.93-1.4,3.44-2.03,4.53-1.88.42.03.84.24,1.24.61.4.38.75,1.08,1.06,2.11.16.52.44.94.83,1.25l.39.27-.32.24Z"/><path class="cls-2" d="M141.41,30.2c-.72-.07-1.34.11-1.87.54-.53.42-.84,1-.94,1.71-.03.28-.07.6-.1.95-.07.73.12,1.36.55,1.89.43.52,1.01.82,1.73.91.73.07,1.36-.12,1.89-.55.52-.43.82-1.01.91-1.73.03-.34.07-.64.1-.88.07-.72-.11-1.35-.54-1.88-.42-.54-1-.86-1.71-.95Z"/><path class="cls-2" d="M162.97,48.17c-.75-.46-1.54-.8-2.37-1.02-.83-.22-1.57-.38-2.2-.48-.15-.03-.29-.06-.44-.07-.54-.1-1.05-.2-1.54-.29-.62-.13-1.14-.29-1.57-.47-.78-.31-1.31-.79-1.59-1.44-.13-.31-.11-.78.06-1.42.17-.64.54-1.2,1.11-1.69.46-.41,1.08-.58,1.86-.51.85,0,2.12.67,3.82,2.01.55.47,1.18.69,1.87.64.69-.05,1.29-.34,1.77-.88.46-.57.66-1.2.61-1.88-.05-.69-.34-1.27-.88-1.76-2.22-1.91-4.43-2.99-6.63-3.23-2.25-.18-4.13.35-5.63,1.59-1.39,1.13-2.35,2.55-2.88,4.26-.53,1.71-.48,3.36.16,4.95,1.08,2.14,2.53,3.53,4.36,4.16.85.33,1.66.57,2.45.73.62.13,1.22.24,1.79.34.13.02.26.04.39.07,1.48.26,2.38.51,2.69.76.15.1.24.19.27.27.03.05.07.13.1.26.03.12.06.31.07.55.02.28-.15.62-.5,1.03-.35.41-.98.71-1.87.91-.85.2-1.9.09-3.16-.32-1.26-.41-2.61-1.34-4.06-2.79-.51-.52-1.11-.79-1.8-.81-.58-.01-1.11.16-1.58.51-.34.06-.66.19-.98.4-1.63,1.11-2.92,1.88-3.87,2.3-.54.23-1.04.38-1.49.47l-.51.02-.02-.12c-.07-.46-.1-1.03-.1-1.71.02-1.39.12-2.95.32-4.68.21-1.75.44-3.37.7-4.87.25-1.5.45-2.64.6-3.43.11-.72-.02-1.36-.4-1.92-.38-.56-.93-.92-1.63-1.06-.72-.11-1.36.02-1.92.4-.56.38-.92.93-1.06,1.63-.15.8-.35,1.98-.62,3.55-.27,1.57-.51,3.27-.72,5.12-.23,1.84-.35,3.61-.37,5.29-.05,1.6.2,3.13.76,4.58.18.42.48.85.89,1.27s.98.73,1.7.91c2.24.34,4.22.09,5.95-.76,1.39-.67,2.67-1.41,3.84-2.2,1.52,1.29,3.06,2.22,4.64,2.78,2.06.73,4.03.9,5.89.53,1.88-.38,3.44-1.2,4.68-2.46,1.24-1.26,1.87-2.81,1.89-4.64-.1-2.43-1.04-4.21-2.82-5.34Z"/><path class="cls-2" d="M12.23,59.96c-3.96,0-7.08-.88-9.36-2.64-1.92-1.47-2.88-3.16-2.88-5.08,0-.98.3-1.8.89-2.44.59-.65,1.41-.97,2.46-.97,1.4,0,2.43.72,3.09,2.15.89,1.92,2.9,2.88,6.03,2.88,2.68,0,5.28-.58,7.79-1.75,2.6-1.2,3.91-2.52,3.91-3.95,0-1.96-.81-3.26-2.43-3.88-1.15-.45-3.47-.72-6.95-.8-2.7-.06-5.11-.57-7.25-1.52-2.88-1.29-4.3-3.15-4.26-5.57.05-3.04,1.67-5.83,4.86-8.36,3.2-2.53,6.72-3.8,10.57-3.8,1.53,0,3.41.35,5.66,1.05,2.79.87,4.19,1.88,4.19,3.02,0,.81-.28,1.53-.84,2.15-.62.7-1.43,1.05-2.41,1.05-.73,0-1.83-.16-3.29-.47-1.46-.31-2.56-.47-3.31-.47-2.01.02-3.92.5-5.73,1.45-1.87.97-2.81,2.02-2.81,3.16,0,.59.28,1.08.85,1.46.57.38,1.42.65,2.56.81,2,.11,3.98.22,5.96.33,3.46.27,6.2,1.24,8.21,2.92,2.21,1.87,3.32,4.46,3.32,7.76,0,4.02-2.29,7.07-6.88,9.14-3.49,1.57-7.48,2.36-11.97,2.36Z"/><path class="cls-2" d="M207.96,61.07c-.84,0-1.61-.33-2.32-.98-4.72-4.43-9.92-7.5-15.58-9.21.17,4.54.26,7.06.26,7.55,0,.89-.31,1.64-.94,2.26-.62.62-1.4.92-2.34.92s-1.72-.31-2.34-.92c-.62-.62-.94-1.37-.94-2.26,0-1.17.02-2.92.05-5.25.03-2.33.05-4.08.05-5.25l.05-18.87c0-1.01.3-1.93.91-2.76.8-1.06,1.89-1.54,3.3-1.43,3.79.28,5.73.43,5.82.44,2.18.27,4.04.79,5.57,1.57,6.66,3.35,9.99,7.51,9.99,12.47,0,2.04-.7,3.85-2.09,5.41-1.4,1.57-3.49,2.89-6.28,3.96,4.13,2.31,7.24,4.66,9.33,7.06.55.62.82,1.32.82,2.08,0,.87-.33,1.63-.98,2.26s-1.43.95-2.34.95ZM192.97,31.65c-.13-.02-1.04-.08-2.74-.19v12.42c.39.02.73.02,1.03.02,3.82,0,6.65-.48,8.49-1.43.8-.41,1.52-.94,2.19-1.61.66-.67.99-1.18.99-1.52,0-1.75-1.11-3.43-3.32-5.05-2.1-1.53-4.32-2.41-6.64-2.64Z"/><path class="cls-2" d="M247.39,28.21c-.31,1.14-.47,2.14-.47,2.98,0,.44-.04,1.12-.13,2.03-.09.92-.13,1.59-.13,2.03,0,1.49-.08,3.7-.23,6.62-.16,2.93-.23,5.14-.23,6.62,0,1.14.09,2.85.26,5.12.17,2.27.26,3.98.26,5.12,0,.86-.3,1.59-.91,2.18s-1.36.89-2.27.89-1.72-.29-2.39-.88-1.01-1.3-1.01-2.14c0-1.14-.05-2.85-.15-5.12-.1-2.28-.15-3.98-.15-5.12,0-.89.02-1.68.05-2.36-2.45.11-5.47.49-9.07,1.15-2.99.55-5.99,1.1-8.98,1.66-.03.99-.14,2.64-.33,4.96-.16,2.04-.23,3.7-.23,5,0,.8-.3,1.48-.91,2.03-.61.55-1.36.83-2.27.83s-1.66-.29-2.27-.87c-.61-.58-.91-1.29-.91-2.12,0-1.54.14-3.84.41-6.89.27-3.06.41-5.36.41-6.9,0-1.95.05-4.88.14-8.8.09-3.92.14-6.85.14-8.8,0-.84.3-1.54.91-2.12.61-.58,1.36-.87,2.27-.87s1.66.3,2.27.89c.61.59.91,1.32.91,2.17,0,1.19-.04,2.97-.13,5.34-.09,2.38-.13,4.16-.13,5.34,0,.39-.05,1.14-.16,2.25-.09,1.03-.13,1.82-.12,2.36l8.98-1.68c3.51-.62,6.53-.98,9.07-1.08.06-1.06.16-3.89.3-8.51.03-1.21.4-2.61,1.1-4.18.87-1.94,1.86-2.91,2.97-2.91.83,0,1.56.27,2.2.82.69.6,1.03,1.34,1.03,2.23,0,.24-.03.47-.09.7Z"/><path class="cls-2" d="M132.54,53.77c-.71-.16-1.4-.05-2.05.35-.55.34-.99.57-1.3.67-.32.1-.54.15-.66.15h-.08l-.05-.05c-.12-.1-.28-.52-.49-1.24-.24-.98-.36-2.16-.36-3.54s.05-2.64.15-3.85c.03-.53.08-1.02.13-1.47.05-.55.09-1,.1-1.34.1-1.96.37-4.61.79-7.96.23-1.86.51-3.79.81-5.79,2.52,0,9.32-.33,14.63-3.76,6.63-4.3,7.8-18.22,5.9-25.94,0,0-7.24,5.39-15.59,9.07-.2.09-.41.18-.6.28-4.26,2.08-6.73,5.56-7.9,9.1-.47,1.44-.73,2.9-.81,4.27-.05.29-.1.59-.15.88,3.94-4.59,9.24-9.38,15.46-11.45,0,0-12.04,6.73-15.61,16.6-.43,1.19-.81,2.25-1.15,3.21-.63,4.45-1.04,8.18-1.23,11.2-.02.24-.04.59-.08,1.03-.05.45-.1.99-.16,1.63-.1,1.29-.15,2.75-.15,4.37-.02,1.58.15,3.17.49,4.75.29,1.6,1.15,3.06,2.58,4.37.62.48,1.33.81,2.14.98,2.05.29,4.07-.22,6.07-1.55.64-.43,1.04-1,1.2-1.7.16-.71.05-1.39-.35-2.04-.41-.65-.98-1.06-1.69-1.23Z"/></svg>